M48
;GenerationSoftware,Autodesk,EAGLE,9.6.2*%
;CreationDate,2025-10-25T23:49:52Z*%
FMAT,2
ICI,OFF
METRIC,TZ,000.000
T12C0.350
T11C0.787
T10C0.800
T9C0.813
T8C0.900
T7C0.950
T6C0.991
T5C1.000
T4C1.016
T3C1.200
T2C1.321
T1C2.300
%
G90
M71
T1
X70020Y45720
X57980Y45720
T2
X38100Y27305
X38100Y24765
X93828Y22428
X88748Y22428
X46990Y23495
X52705Y46990
X96368Y22428
X91288Y22428
X98908Y22428
X71120Y26035
X52070Y23495
X49530Y23495
X47625Y46990
X68580Y26035
X50165Y46990
T3
X79422Y3810
X74422Y3810
X84422Y3810
X97202Y3810
X92202Y3810
X102202Y3810
X4626Y980
X4626Y3480
X9626Y8480
X14626Y980
X14626Y3480
X56642Y3810
X111801Y6465
X108401Y17765
X125771Y6465
X122371Y17765
X115386Y17765
X43862Y3810
X118786Y6465
X38862Y3810
X48862Y3810
X61642Y3810
X66642Y3810
T4
X121920Y42545
X121920Y45085
X114300Y45085
X119380Y45085
X119380Y42545
X116840Y45085
X116840Y42545
X114300Y42545
X111760Y45085
X111760Y42545
T5
X28000Y22418
X25500Y7518
T6
X109474Y30302
X114478Y32817
X109474Y35306
T7
X65250Y41010
X65250Y43010
X62750Y43010
X62750Y41010
T8
X109601Y9565
X123571Y14565
X123571Y9565
X123571Y12065
X116586Y14565
X116586Y12065
X109601Y12065
X116586Y9565
X109601Y14565
T9
X6223Y13513
X102108Y12319
X104648Y12319
X7810Y23940
X5296Y26454
X3683Y13513
X12319Y14630
X12319Y18186
T10
X14626Y8480
X4626Y8480
X9626Y3480
T11
X13843Y28092
X13843Y23012
X16383Y28092
X16383Y25552
X16383Y23012
X13843Y25552
T12
X43815Y21717
X61595Y21336
X79375Y21717
X64262Y35814
X57785Y37465
X60198Y34163
X51359Y26772
X57785Y32705
X102819Y7468
X57337Y33655
X57785Y34605
X46660Y19583
X57709Y22885
X64135Y20066
X46355Y16510
X64237Y16586
X46101Y29210
X95885Y44450
X54889Y37160
X24130Y34290
X84455Y36195
X58233Y33655
X103886Y36576
X52959Y14097
X69977Y14097
X40960Y31496
X63754Y26035
X74930Y39370
X95199Y39751
X109449Y43358
X68580Y41275
X46863Y42266
X34417Y43764
X34036Y35535
X81534Y20422
X52756Y19507
X41910Y31944
X42860Y31496
X88900Y15875
X73279Y28677
X6121Y41605
X12065Y37465
X43917Y36830
X73152Y38405
X73660Y41910
X40640Y43180
X86258Y42951
X47955Y41910
X18796Y44272
X110465Y26695
X90170Y44196
X42093Y28981
X77089Y38862
X78105Y38842
X79121Y38862
X75184Y30579
X52324Y30607
X51816Y37211
X53848Y39342
X47473Y32385
X36119Y32563
X41910Y31048
M30