G04 EAGLE Gerber RS-274X export*
G75*
%MOMM*%
%FSLAX34Y34*%
%LPD*%
%INSoldermask Top*%
%IPPOS*%
%AMOC8*
5,1,8,0,0,1.08239X$1,22.5*%
G01*
%ADD10R,3.203200X1.603200*%
%ADD11R,1.603200X3.203200*%
%ADD12R,1.503200X1.703200*%
%ADD13R,2.003200X1.803200*%
%ADD14R,1.803200X2.003200*%
%ADD15R,1.703200X1.503200*%
%ADD16R,1.603200X2.403200*%
%ADD17R,2.323200X2.483200*%
%ADD18R,0.700000X1.275000*%
%ADD19P,1.649562X8X202.500000*%
%ADD20R,2.203200X1.803200*%
%ADD21R,2.743200X1.473200*%
%ADD22R,1.803200X2.203200*%
%ADD23C,1.701800*%
%ADD24R,1.803200X2.006200*%
%ADD25R,2.006200X1.803200*%
%ADD26R,1.473200X2.743200*%
%ADD27C,0.321103*%
%ADD28R,0.380000X0.740000*%
%ADD29R,0.740000X0.380000*%
%ADD30R,2.203200X5.703200*%
%ADD31P,1.798066X8X202.500000*%
%ADD32C,2.503200*%
%ADD33C,1.611200*%
%ADD34R,1.611200X1.611200*%
%ADD35C,2.003200*%
%ADD36P,2.556822X8X202.500000*%
%ADD37P,1.869504X8X202.500000*%
%ADD38R,0.803200X1.003200*%
%ADD39R,2.003200X2.003200*%
%ADD40P,1.649562X8X22.500000*%
%ADD41P,2.556822X8X22.500000*%
%ADD42R,0.653200X0.503200*%
%ADD43R,1.203200X1.803200*%
%ADD44R,2.403200X1.603200*%
%ADD45R,1.371600X1.803400*%
%ADD46P,1.951982X8X337.500000*%
%ADD47C,1.803400*%
%ADD48C,1.511200*%
%ADD49C,1.403200*%
%ADD50P,2.556822X8X292.500000*%
%ADD51R,0.762000X2.184400*%
%ADD52P,2.556822X8X112.500000*%
%ADD53P,1.951982X8X292.500000*%
%ADD54C,1.498600*%
%ADD55C,1.711200*%
%ADD56C,0.959600*%

G36*
X431847Y305997D02*
X431847Y305997D01*
X431842Y306004D01*
X431849Y306010D01*
X431849Y310461D01*
X436800Y310461D01*
X436847Y310497D01*
X436842Y310504D01*
X436849Y310510D01*
X436849Y314410D01*
X436813Y314457D01*
X436806Y314452D01*
X436800Y314459D01*
X431849Y314459D01*
X431849Y315461D01*
X436800Y315461D01*
X436847Y315497D01*
X436845Y315500D01*
X436847Y315502D01*
X436844Y315506D01*
X436849Y315510D01*
X436849Y319410D01*
X436813Y319457D01*
X436806Y319452D01*
X436800Y319459D01*
X431849Y319459D01*
X431849Y323910D01*
X431813Y323957D01*
X431806Y323952D01*
X431800Y323959D01*
X406400Y323959D01*
X406353Y323923D01*
X406358Y323916D01*
X406351Y323910D01*
X406351Y319459D01*
X401400Y319459D01*
X401353Y319423D01*
X401355Y319421D01*
X401353Y319419D01*
X401356Y319414D01*
X401351Y319410D01*
X401351Y315510D01*
X401387Y315463D01*
X401394Y315468D01*
X401400Y315461D01*
X406351Y315461D01*
X406351Y314459D01*
X401400Y314459D01*
X401353Y314423D01*
X401358Y314416D01*
X401351Y314410D01*
X401351Y310510D01*
X401387Y310463D01*
X401394Y310468D01*
X401400Y310461D01*
X406351Y310461D01*
X406351Y306010D01*
X406387Y305963D01*
X406394Y305968D01*
X406400Y305961D01*
X431800Y305961D01*
X431847Y305997D01*
G37*
G36*
X577347Y318837D02*
X577347Y318837D01*
X577342Y318844D01*
X577349Y318850D01*
X577349Y323801D01*
X578351Y323801D01*
X578351Y318850D01*
X578387Y318803D01*
X578394Y318808D01*
X578400Y318801D01*
X582300Y318801D01*
X582347Y318837D01*
X582342Y318844D01*
X582349Y318850D01*
X582349Y323801D01*
X586800Y323801D01*
X586847Y323837D01*
X586842Y323844D01*
X586849Y323850D01*
X586849Y349250D01*
X586813Y349297D01*
X586806Y349292D01*
X586800Y349299D01*
X582349Y349299D01*
X582349Y354250D01*
X582313Y354297D01*
X582306Y354292D01*
X582300Y354299D01*
X578400Y354299D01*
X578353Y354263D01*
X578358Y354256D01*
X578351Y354250D01*
X578351Y349299D01*
X577349Y349299D01*
X577349Y354250D01*
X577313Y354297D01*
X577306Y354292D01*
X577300Y354299D01*
X573400Y354299D01*
X573353Y354263D01*
X573358Y354256D01*
X573351Y354250D01*
X573351Y349299D01*
X568900Y349299D01*
X568853Y349263D01*
X568858Y349256D01*
X568851Y349250D01*
X568851Y323850D01*
X568887Y323803D01*
X568894Y323808D01*
X568900Y323801D01*
X573351Y323801D01*
X573351Y318850D01*
X573387Y318803D01*
X573394Y318808D01*
X573400Y318801D01*
X577300Y318801D01*
X577347Y318837D01*
G37*
D10*
X306708Y293878D03*
X354708Y293878D03*
D11*
X831850Y265560D03*
X831850Y313560D03*
X904240Y259718D03*
X904240Y307718D03*
X976122Y256670D03*
X976122Y304670D03*
D12*
X499770Y418592D03*
X518770Y418592D03*
D13*
X793750Y170150D03*
X793750Y198150D03*
D14*
X452150Y138430D03*
X424150Y138430D03*
D13*
X615950Y170150D03*
X615950Y198150D03*
D14*
X607030Y281940D03*
X635030Y281940D03*
X557500Y260350D03*
X585500Y260350D03*
D15*
X424180Y351180D03*
X424180Y370180D03*
D14*
X629950Y138430D03*
X601950Y138430D03*
D16*
X765556Y265432D03*
X765556Y297432D03*
D12*
X546456Y341630D03*
X527456Y341630D03*
D13*
X313690Y369600D03*
X313690Y341600D03*
D12*
X903630Y424180D03*
X922630Y424180D03*
X903376Y395224D03*
X922376Y395224D03*
D15*
X990600Y395630D03*
X990600Y414630D03*
X991108Y356210D03*
X991108Y337210D03*
D12*
X911504Y365252D03*
X930504Y365252D03*
X911504Y344932D03*
X930504Y344932D03*
D10*
X678564Y326390D03*
X726564Y326390D03*
D12*
X784708Y414274D03*
X765708Y414274D03*
D17*
X242570Y364550D03*
X242570Y321250D03*
D18*
X1165250Y349675D03*
X1184250Y349675D03*
X1165250Y323425D03*
X1174750Y323425D03*
X1184250Y323425D03*
D19*
X1046480Y123190D03*
X1021080Y123190D03*
D12*
X782980Y452120D03*
X801980Y452120D03*
D15*
X1077722Y393294D03*
X1077722Y374294D03*
D20*
X454660Y351820D03*
X454660Y323820D03*
X673100Y198150D03*
X673100Y170150D03*
X565150Y170150D03*
X565150Y198150D03*
X488950Y198150D03*
X488950Y170150D03*
X387350Y170150D03*
X387350Y198150D03*
X844550Y198150D03*
X844550Y170150D03*
D12*
X676250Y384048D03*
X657250Y384048D03*
D20*
X742950Y170150D03*
X742950Y198150D03*
X438150Y170150D03*
X438150Y198150D03*
D21*
X991108Y113284D03*
X991108Y138684D03*
X888746Y138430D03*
X888746Y113030D03*
D20*
X623570Y333980D03*
X623570Y361980D03*
D22*
X637570Y307340D03*
X609570Y307340D03*
D20*
X1241298Y325404D03*
X1241298Y297404D03*
X1210310Y297150D03*
X1210310Y325150D03*
D12*
X1207364Y369062D03*
X1188364Y369062D03*
D15*
X560070Y419710D03*
X560070Y400710D03*
D20*
X615950Y256570D03*
X615950Y228570D03*
D22*
X534640Y372110D03*
X562640Y372110D03*
D23*
X1094740Y353060D03*
X1144778Y328168D03*
X1094740Y303022D03*
D24*
X465078Y267970D03*
X493518Y267970D03*
D25*
X494030Y289564D03*
X494030Y318004D03*
D21*
X383540Y351790D03*
X383540Y326390D03*
D26*
X539750Y300990D03*
X565150Y300990D03*
D22*
X278160Y283210D03*
X250160Y283210D03*
D20*
X285750Y369600D03*
X285750Y341600D03*
X340360Y369600D03*
X340360Y341600D03*
D15*
X1168146Y231800D03*
X1168146Y250800D03*
X1228852Y231800D03*
X1228852Y250800D03*
X1107440Y231800D03*
X1107440Y250800D03*
D12*
X700430Y385064D03*
X719430Y385064D03*
X396850Y415798D03*
X377850Y415798D03*
X437490Y415798D03*
X418490Y415798D03*
D27*
X800589Y427789D02*
X818411Y427789D01*
X800589Y427789D02*
X800589Y431411D01*
X818411Y431411D01*
X818411Y427789D01*
X818411Y430839D02*
X800589Y430839D01*
X800589Y421289D02*
X818411Y421289D01*
X800589Y421289D02*
X800589Y424911D01*
X818411Y424911D01*
X818411Y421289D01*
X818411Y424339D02*
X800589Y424339D01*
X800589Y414789D02*
X818411Y414789D01*
X800589Y414789D02*
X800589Y418411D01*
X818411Y418411D01*
X818411Y414789D01*
X818411Y417839D02*
X800589Y417839D01*
X800589Y408289D02*
X818411Y408289D01*
X800589Y408289D02*
X800589Y411911D01*
X818411Y411911D01*
X818411Y408289D01*
X818411Y411339D02*
X800589Y411339D01*
X800589Y401789D02*
X818411Y401789D01*
X800589Y401789D02*
X800589Y405411D01*
X818411Y405411D01*
X818411Y401789D01*
X818411Y404839D02*
X800589Y404839D01*
X800589Y395289D02*
X818411Y395289D01*
X800589Y395289D02*
X800589Y398911D01*
X818411Y398911D01*
X818411Y395289D01*
X818411Y398339D02*
X800589Y398339D01*
X800589Y388789D02*
X818411Y388789D01*
X800589Y388789D02*
X800589Y392411D01*
X818411Y392411D01*
X818411Y388789D01*
X818411Y391839D02*
X800589Y391839D01*
X800589Y382289D02*
X818411Y382289D01*
X800589Y382289D02*
X800589Y385911D01*
X818411Y385911D01*
X818411Y382289D01*
X818411Y385339D02*
X800589Y385339D01*
X800589Y375789D02*
X818411Y375789D01*
X800589Y375789D02*
X800589Y379411D01*
X818411Y379411D01*
X818411Y375789D01*
X818411Y378839D02*
X800589Y378839D01*
X800589Y369289D02*
X818411Y369289D01*
X800589Y369289D02*
X800589Y372911D01*
X818411Y372911D01*
X818411Y369289D01*
X818411Y372339D02*
X800589Y372339D01*
X800589Y362789D02*
X818411Y362789D01*
X800589Y362789D02*
X800589Y366411D01*
X818411Y366411D01*
X818411Y362789D01*
X818411Y365839D02*
X800589Y365839D01*
X800589Y356289D02*
X818411Y356289D01*
X800589Y356289D02*
X800589Y359911D01*
X818411Y359911D01*
X818411Y356289D01*
X818411Y359339D02*
X800589Y359339D01*
X800589Y349789D02*
X818411Y349789D01*
X800589Y349789D02*
X800589Y353411D01*
X818411Y353411D01*
X818411Y349789D01*
X818411Y352839D02*
X800589Y352839D01*
X800589Y343289D02*
X818411Y343289D01*
X800589Y343289D02*
X800589Y346911D01*
X818411Y346911D01*
X818411Y343289D01*
X818411Y346339D02*
X800589Y346339D01*
X870689Y343289D02*
X888511Y343289D01*
X870689Y343289D02*
X870689Y346911D01*
X888511Y346911D01*
X888511Y343289D01*
X888511Y346339D02*
X870689Y346339D01*
X870689Y349789D02*
X888511Y349789D01*
X870689Y349789D02*
X870689Y353411D01*
X888511Y353411D01*
X888511Y349789D01*
X888511Y352839D02*
X870689Y352839D01*
X870689Y356289D02*
X888511Y356289D01*
X870689Y356289D02*
X870689Y359911D01*
X888511Y359911D01*
X888511Y356289D01*
X888511Y359339D02*
X870689Y359339D01*
X870689Y362789D02*
X888511Y362789D01*
X870689Y362789D02*
X870689Y366411D01*
X888511Y366411D01*
X888511Y362789D01*
X888511Y365839D02*
X870689Y365839D01*
X870689Y369289D02*
X888511Y369289D01*
X870689Y369289D02*
X870689Y372911D01*
X888511Y372911D01*
X888511Y369289D01*
X888511Y372339D02*
X870689Y372339D01*
X870689Y375789D02*
X888511Y375789D01*
X870689Y375789D02*
X870689Y379411D01*
X888511Y379411D01*
X888511Y375789D01*
X888511Y378839D02*
X870689Y378839D01*
X870689Y382289D02*
X888511Y382289D01*
X870689Y382289D02*
X870689Y385911D01*
X888511Y385911D01*
X888511Y382289D01*
X888511Y385339D02*
X870689Y385339D01*
X870689Y388789D02*
X888511Y388789D01*
X870689Y388789D02*
X870689Y392411D01*
X888511Y392411D01*
X888511Y388789D01*
X888511Y391839D02*
X870689Y391839D01*
X870689Y395289D02*
X888511Y395289D01*
X870689Y395289D02*
X870689Y398911D01*
X888511Y398911D01*
X888511Y395289D01*
X888511Y398339D02*
X870689Y398339D01*
X870689Y401789D02*
X888511Y401789D01*
X870689Y401789D02*
X870689Y405411D01*
X888511Y405411D01*
X888511Y401789D01*
X888511Y404839D02*
X870689Y404839D01*
X870689Y408289D02*
X888511Y408289D01*
X870689Y408289D02*
X870689Y411911D01*
X888511Y411911D01*
X888511Y408289D01*
X888511Y411339D02*
X870689Y411339D01*
X870689Y414789D02*
X888511Y414789D01*
X870689Y414789D02*
X870689Y418411D01*
X888511Y418411D01*
X888511Y414789D01*
X888511Y417839D02*
X870689Y417839D01*
X870689Y421289D02*
X888511Y421289D01*
X870689Y421289D02*
X870689Y424911D01*
X888511Y424911D01*
X888511Y421289D01*
X888511Y424339D02*
X870689Y424339D01*
X870689Y427789D02*
X888511Y427789D01*
X870689Y427789D02*
X870689Y431411D01*
X888511Y431411D01*
X888511Y427789D01*
X888511Y430839D02*
X870689Y430839D01*
D28*
X429100Y328960D03*
X424100Y328960D03*
X419100Y328960D03*
X414100Y328960D03*
X409100Y328960D03*
X409100Y300960D03*
X414100Y300960D03*
X419100Y300960D03*
X424100Y300960D03*
X429100Y300960D03*
D29*
X563850Y346550D03*
X563850Y341550D03*
X563850Y336550D03*
X563850Y331550D03*
X563850Y326550D03*
X591850Y326550D03*
X591850Y331550D03*
X591850Y336550D03*
X591850Y341550D03*
X591850Y346550D03*
D30*
X1031240Y318260D03*
X1031240Y413260D03*
D31*
X627500Y410100D03*
X652500Y410100D03*
X652500Y430100D03*
X627500Y430100D03*
D32*
X700200Y457200D03*
X579800Y457200D03*
D33*
X1096010Y120650D03*
X1096010Y145650D03*
D34*
X1096010Y95650D03*
D35*
X1118010Y64650D03*
X1084010Y177650D03*
D33*
X1235710Y120650D03*
X1235710Y145650D03*
D34*
X1235710Y95650D03*
D35*
X1257710Y64650D03*
X1223710Y177650D03*
D33*
X1165860Y120650D03*
X1165860Y145650D03*
D34*
X1165860Y95650D03*
D35*
X1187860Y64650D03*
X1153860Y177650D03*
D36*
X912876Y224282D03*
X963676Y224282D03*
X527050Y469900D03*
D37*
X1219200Y450850D03*
X1219200Y425450D03*
X1193800Y450850D03*
X1193800Y425450D03*
X1168400Y450850D03*
X1168400Y425450D03*
X1143000Y450850D03*
X1143000Y425450D03*
X1117600Y450850D03*
X1117600Y425450D03*
D12*
X518770Y444500D03*
X499770Y444500D03*
D38*
X1072270Y454660D03*
X1089270Y454660D03*
D15*
X1161288Y368960D03*
X1161288Y387960D03*
D35*
X438620Y38100D03*
D39*
X388620Y38100D03*
D35*
X488620Y38100D03*
X616420Y38100D03*
D39*
X566420Y38100D03*
D35*
X666420Y38100D03*
X794220Y38100D03*
D39*
X744220Y38100D03*
D35*
X844220Y38100D03*
X972020Y38100D03*
D39*
X922020Y38100D03*
D35*
X1022020Y38100D03*
D10*
X964562Y159766D03*
X916562Y159766D03*
D40*
X36830Y135128D03*
X62230Y135128D03*
D12*
X75336Y436880D03*
X94336Y436880D03*
D36*
X887476Y224282D03*
D41*
X501650Y469900D03*
D36*
X685800Y260350D03*
D41*
X476250Y469900D03*
D36*
X495300Y234950D03*
X520700Y234950D03*
X711200Y260350D03*
D41*
X989076Y224282D03*
D36*
X469900Y234950D03*
D42*
X460150Y444650D03*
X460150Y438150D03*
X460150Y431650D03*
X479650Y431650D03*
X479650Y438150D03*
X479650Y444650D03*
D43*
X469900Y438150D03*
D44*
G36*
X770184Y346098D02*
X753192Y329106D01*
X741856Y340442D01*
X758848Y357434D01*
X770184Y346098D01*
G37*
G36*
X792812Y368726D02*
X775820Y351734D01*
X764484Y363070D01*
X781476Y380062D01*
X792812Y368726D01*
G37*
D15*
X440182Y468224D03*
X440182Y449224D03*
D45*
X1137412Y207772D03*
X1122172Y207772D03*
X1106932Y207772D03*
X1091692Y207772D03*
X1076452Y207772D03*
X1259332Y207772D03*
X1244092Y207772D03*
X1228852Y207772D03*
X1213612Y207772D03*
X1198626Y207772D03*
X1183386Y207772D03*
X1168146Y207772D03*
X1152906Y207772D03*
D41*
X938276Y224282D03*
D15*
X111506Y462686D03*
X111506Y481686D03*
D44*
X53850Y470154D03*
X85850Y470154D03*
D46*
X78104Y239396D03*
D47*
X52960Y264540D03*
D48*
X89720Y34798D02*
X102800Y34798D01*
X146260Y78258D02*
X146260Y91338D01*
X46260Y91338D02*
X46260Y78258D01*
D49*
X46260Y9798D03*
X46260Y34798D03*
X96260Y84798D03*
X146260Y9798D03*
X146260Y34798D03*
D50*
X381000Y247650D03*
D51*
X127762Y404114D03*
X140462Y404114D03*
X153162Y404114D03*
X165862Y404114D03*
X165862Y453390D03*
X153162Y453390D03*
X140462Y453390D03*
X127762Y453390D03*
D22*
X166654Y363220D03*
X138654Y363220D03*
X72360Y396494D03*
X100360Y396494D03*
D52*
X381000Y273050D03*
D53*
X123190Y146304D03*
D47*
X123190Y181864D03*
D20*
X162560Y308580D03*
X162560Y336580D03*
X44450Y341600D03*
X44450Y369600D03*
D12*
X207112Y427990D03*
X188112Y427990D03*
D54*
X138430Y280924D03*
X138430Y255524D03*
X138430Y230124D03*
X163830Y280924D03*
X163830Y255524D03*
X163830Y230124D03*
D55*
X255000Y82724D02*
X255000Y67644D01*
X280000Y216644D02*
X280000Y231724D01*
D20*
X194310Y308580D03*
X194310Y336580D03*
X76200Y341600D03*
X76200Y369600D03*
D13*
X194310Y359380D03*
X194310Y387380D03*
X44450Y392116D03*
X44450Y420116D03*
D14*
X191232Y283972D03*
X219232Y283972D03*
X46422Y319532D03*
X74422Y319532D03*
D56*
X466598Y195834D03*
X577088Y228854D03*
X641350Y200660D03*
X463550Y165100D03*
X642366Y165862D03*
X461010Y292100D03*
X958850Y444500D03*
X548894Y371602D03*
X241300Y342900D03*
X844550Y361950D03*
X1038860Y365760D03*
X529590Y140970D03*
X699770Y140970D03*
X1028192Y74676D03*
X637540Y260350D03*
X749300Y393700D03*
X951992Y397510D03*
X1094486Y433578D03*
X731520Y384048D03*
X685800Y412750D03*
X468630Y422656D03*
X344170Y437642D03*
X340360Y355346D03*
X815340Y204216D03*
X527558Y195072D03*
X889000Y158750D03*
X732790Y286766D03*
X61214Y416052D03*
X120650Y374650D03*
X439166Y368300D03*
X406400Y431800D03*
X862584Y429514D03*
X479552Y419100D03*
X1104646Y266954D03*
X770890Y388620D03*
X781050Y388422D03*
X791210Y388620D03*
X751840Y305788D03*
X523240Y306070D03*
X518160Y372110D03*
X538480Y393418D03*
X187960Y442722D03*
X474726Y323850D03*
X361188Y325628D03*
X438150Y217170D03*
X615950Y213360D03*
X793750Y217170D03*
X642620Y358140D03*
X577850Y374650D03*
X601980Y341630D03*
X513588Y267716D03*
X420930Y289814D03*
X901700Y441960D03*
X736600Y419100D03*
M02*
