G04 EAGLE Gerber RS-274X export*
G75*
%MOMM*%
%FSLAX34Y34*%
%LPD*%
%INSoldermask Bottom*%
%IPPOS*%
%AMOC8*
5,1,8,0,0,1.08239X$1,22.5*%
G01*
%ADD10P,1.649562X8X202.500000*%
%ADD11C,1.701800*%
%ADD12P,1.798066X8X202.500000*%
%ADD13C,2.503200*%
%ADD14C,1.611200*%
%ADD15R,1.611200X1.611200*%
%ADD16C,2.003200*%
%ADD17P,2.556822X8X202.500000*%
%ADD18P,1.869504X8X202.500000*%
%ADD19R,2.003200X2.003200*%
%ADD20P,1.649562X8X22.500000*%
%ADD21P,2.556822X8X22.500000*%
%ADD22P,1.951982X8X337.500000*%
%ADD23C,1.803400*%
%ADD24C,1.511200*%
%ADD25C,1.403200*%
%ADD26P,2.556822X8X292.500000*%
%ADD27P,2.556822X8X112.500000*%
%ADD28P,1.951982X8X292.500000*%
%ADD29C,1.498600*%
%ADD30C,1.711200*%
%ADD31C,0.959600*%


D10*
X1046480Y123190D03*
X1021080Y123190D03*
D11*
X1094740Y353060D03*
X1144778Y328168D03*
X1094740Y303022D03*
D12*
X627500Y410100D03*
X652500Y410100D03*
X652500Y430100D03*
X627500Y430100D03*
D13*
X700200Y457200D03*
X579800Y457200D03*
D14*
X1096010Y120650D03*
X1096010Y145650D03*
D15*
X1096010Y95650D03*
D16*
X1118010Y64650D03*
X1084010Y177650D03*
D14*
X1235710Y120650D03*
X1235710Y145650D03*
D15*
X1235710Y95650D03*
D16*
X1257710Y64650D03*
X1223710Y177650D03*
D14*
X1165860Y120650D03*
X1165860Y145650D03*
D15*
X1165860Y95650D03*
D16*
X1187860Y64650D03*
X1153860Y177650D03*
D17*
X912876Y224282D03*
X963676Y224282D03*
X527050Y469900D03*
D18*
X1219200Y450850D03*
X1219200Y425450D03*
X1193800Y450850D03*
X1193800Y425450D03*
X1168400Y450850D03*
X1168400Y425450D03*
X1143000Y450850D03*
X1143000Y425450D03*
X1117600Y450850D03*
X1117600Y425450D03*
D16*
X438620Y38100D03*
D19*
X388620Y38100D03*
D16*
X488620Y38100D03*
X616420Y38100D03*
D19*
X566420Y38100D03*
D16*
X666420Y38100D03*
X794220Y38100D03*
D19*
X744220Y38100D03*
D16*
X844220Y38100D03*
X972020Y38100D03*
D19*
X922020Y38100D03*
D16*
X1022020Y38100D03*
D20*
X36830Y135128D03*
X62230Y135128D03*
D17*
X887476Y224282D03*
D21*
X501650Y469900D03*
D17*
X685800Y260350D03*
D21*
X476250Y469900D03*
D17*
X495300Y234950D03*
X520700Y234950D03*
X711200Y260350D03*
D21*
X989076Y224282D03*
D17*
X469900Y234950D03*
D21*
X938276Y224282D03*
D22*
X78104Y239396D03*
D23*
X52960Y264540D03*
D24*
X89720Y34798D02*
X102800Y34798D01*
X146260Y78258D02*
X146260Y91338D01*
X46260Y91338D02*
X46260Y78258D01*
D25*
X46260Y9798D03*
X46260Y34798D03*
X96260Y84798D03*
X146260Y9798D03*
X146260Y34798D03*
D26*
X381000Y247650D03*
D27*
X381000Y273050D03*
D28*
X123190Y146304D03*
D23*
X123190Y181864D03*
D29*
X138430Y280924D03*
X138430Y255524D03*
X138430Y230124D03*
X163830Y280924D03*
X163830Y255524D03*
X163830Y230124D03*
D30*
X255000Y82724D02*
X255000Y67644D01*
X280000Y216644D02*
X280000Y231724D01*
D31*
X466598Y195834D03*
X577088Y228854D03*
X641350Y200660D03*
X463550Y165100D03*
X642366Y165862D03*
X461010Y292100D03*
X958850Y444500D03*
X548894Y371602D03*
X241300Y342900D03*
X844550Y361950D03*
X1038860Y365760D03*
X529590Y140970D03*
X699770Y140970D03*
X1028192Y74676D03*
X637540Y260350D03*
X749300Y393700D03*
X951992Y397510D03*
X1094486Y433578D03*
X731520Y384048D03*
X685800Y412750D03*
X468630Y422656D03*
X344170Y437642D03*
X340360Y355346D03*
X815340Y204216D03*
X527558Y195072D03*
X889000Y158750D03*
X732790Y286766D03*
X61214Y416052D03*
X120650Y374650D03*
X439166Y368300D03*
X406400Y431800D03*
X862584Y429514D03*
X479552Y419100D03*
X1104646Y266954D03*
X770890Y388620D03*
X781050Y388422D03*
X791210Y388620D03*
X751840Y305788D03*
X523240Y306070D03*
X518160Y372110D03*
X538480Y393418D03*
X187960Y442722D03*
X474726Y323850D03*
X361188Y325628D03*
X438150Y217170D03*
X615950Y213360D03*
X793750Y217170D03*
X642620Y358140D03*
X577850Y374650D03*
X601980Y341630D03*
X513588Y267716D03*
X420930Y289814D03*
X901700Y441960D03*
X736600Y419100D03*
M02*
